<svg xmlns="http://www.w3.org/2000/svg" preserveAspectRatio="xMinYMin meet" viewBox="0 0 340.00001 110"><path d="M64.718 108.565c-2.058-1.063-2.785-3.887-1.6-6.21 1.412-2.767 4.849-2.761 6.314.01.766 1.449.769 2.76.007 4.251-1.067 2.088-2.948 2.865-4.72 1.949zm3.17-.781c.436-.554.552-1.084.552-2.512 0-2.715-.925-4.508-2.327-4.508-1.892 0-2.674 2.138-1.903 5.2.596 2.367 2.505 3.311 3.678 1.82zm4.6.914c-.484-.483-.385-.955.242-1.154.796-.253 1.524.485 1.047 1.061-.411.495-.856.527-1.29.093zm7.673-.133c-2.057-1.063-2.785-3.887-1.6-6.21 1.412-2.767 4.849-2.761 6.314.01.767 1.449.769 2.76.007 4.251-1.067 2.088-2.948 2.865-4.72 1.949zm3.17-.781c.436-.554.552-1.084.552-2.512 0-2.715-.925-4.508-2.327-4.508-1.892 0-2.674 2.138-1.903 5.2.596 2.367 2.505 3.311 3.679 1.82zm15.796 1.054c-.82-.114-.866-.18-.865-1.235l.001-1.115.524.859c.536.879 1.356 1.25 2.416 1.094 1.382-.205 1.35-2.068-.049-2.836a24.055 24.055 0 0 1-1.854-1.182c-.911-.644-1.039-.864-1.039-1.797 0-.708.178-1.241.533-1.596.603-.603.676-.621 2.595-.647l1.397-.019-.02 1.199c-.011.659-.086 1.018-.166.798-.326-.891-1.25-1.597-2.09-1.597-2.008 0-1.885 1.758.2 2.865 2.048 1.088 2.61 1.72 2.61 2.934 0 1.809-1.538 2.643-4.193 2.275zm7.675-.292c-1.262-.694-1.884-1.97-1.884-3.864 0-1.723.442-2.8 1.486-3.622 1.96-1.542 4.346-.705 5.039 1.767.166.594.144.6-2.646.6-3.148 0-3.237.07-2.447 1.96.831 1.99 3.057 2.676 4.305 1.329.503-.543.653-.603.653-.263 0 .244-.39.864-.865 1.38-1.089 1.179-2.345 1.425-3.64.713zm2.909-6.185c0-.727-.927-1.597-1.702-1.597-.77 0-1.65.714-1.888 1.53-.169.582-.118.6 1.708.6 1.704 0 1.882-.05 1.882-.533zm4.127 6.339c-.75-.426-.924-.754-.928-1.763-.006-1.361.398-1.84 2.402-2.85 1.567-.789 1.854-1.039 1.854-1.613 0-1.098-.469-1.71-1.308-1.71-.905 0-1.276.39-1.398 1.464-.118 1.051-1.114 1.152-1.234.124-.132-1.139 1.036-1.988 2.735-1.988 2.296 0 2.505.341 2.595 4.228.074 3.226.075 3.228.72 3.201l.645-.026-.727.625c-.928.799-1.431.792-1.803-.025l-.297-.65-.958.65c-1.057.718-1.504.783-2.298.333zm2.736-1.162c.508-.355.592-.659.592-2.13 0-.943-.068-1.715-.15-1.715-.338 0-1.359.638-2.047 1.28-1.682 1.57-.247 3.863 1.605 2.565zm5.444 1.065c-.562-.393-.592-.597-.592-3.994v-3.579h-.685c-.684 0-.683 0 .256-.887.517-.488 1.093-1.236 1.279-1.664.334-.77.339-.763.423.62l.086 1.398h.918c.505 0 .918.12.918.267 0 .146-.42.266-.932.266h-.932v3.337c0 2.84.065 3.361.435 3.503.24.092.658.027.932-.144.755-.471.594.112-.204.74-.84.66-1.125.681-1.902.137zm4.8.235c-.82-.114-.865-.18-.864-1.235v-1.115l.524.859c.536.879 1.356 1.25 2.416 1.094 1.382-.205 1.35-2.068-.049-2.836a24.059 24.059 0 0 1-1.854-1.182c-.911-.644-1.038-.864-1.038-1.797 0-.708.177-1.241.532-1.596.603-.603.676-.621 2.595-.647l1.397-.019-.02 1.199c-.011.659-.086 1.018-.166.798-.326-.891-1.25-1.597-2.09-1.597-2.008 0-1.885 1.758.2 2.865 2.048 1.088 2.61 1.72 2.61 2.934 0 1.809-1.538 2.643-4.193 2.275zm10.91-.235c-.562-.393-.593-.597-.593-3.994v-3.579l-.732-.014-.732-.014.645-.448c.354-.247.983-.983 1.398-1.636l.753-1.187v2.766h.932c.512 0 .932.12.932.267 0 .146-.42.266-.932.266h-.932v3.337c0 2.84.064 3.36.434 3.503.24.092.659.027.932-.144.755-.471.594.112-.204.74-.84.66-1.125.681-1.902.137zm5.537-.038c-1.4-.724-2.136-2.006-2.136-3.724 0-3.423 2.723-5.54 5.326-4.14 1.109.597 2.13 2.413 2.13 3.79 0 1.172-.967 3.13-1.87 3.786-1.011.735-2.366.848-3.45.288zm3.17-.781c.436-.554.552-1.084.552-2.512 0-2.715-.926-4.508-2.327-4.508-1.892 0-2.674 2.138-1.903 5.2.596 2.367 2.505 3.312 3.678 1.82zm8.94.839c-.587-.218-1.096-.398-1.132-.4-.037-.002-.067-2.404-.067-5.338 0-4.684-.053-5.353-.434-5.5-.34-.13-.238-.27.466-.646.495-.264.99-.484 1.1-.49.11-.007.2 1.257.2 2.808v2.82l.819-.69c1.064-.896 1.897-1.088 2.798-.647 1.103.54 1.767 1.63 1.912 3.138.348 3.615-2.514 6.115-5.663 4.945zm3.322-.725c1.255-1.348 1.33-4.36.139-5.644-.737-.796-1.712-.89-2.672-.261-.624.408-.657.559-.657 3.046 0 2.403.049 2.651.592 3.032.842.59 1.956.515 2.598-.173zm5.613.633c-1.254-.673-1.88-1.953-1.88-3.849 0-1.723.442-2.8 1.486-3.621 1.96-1.543 4.346-.706 5.039 1.766.166.594.144.6-2.646.6-3.148 0-3.236.07-2.447 1.96.831 1.99 3.057 2.676 4.305 1.329.753-.812.865-.402.2.725-.47.796-1.785 1.577-2.653 1.577-.273 0-.905-.22-1.404-.487zm2.913-6.17c0-.727-.927-1.597-1.701-1.597-.77 0-1.651.714-1.888 1.53-.17.582-.118.6 1.707.6 1.704 0 1.882-.05 1.882-.533zM196 108.546c-1.262-.694-1.885-1.97-1.885-3.864 0-1.723.442-2.8 1.486-3.621 1.96-1.543 4.346-.706 5.039 1.766.166.594.144.6-2.646.6-3.148 0-3.236.07-2.447 1.96.831 1.99 3.057 2.676 4.305 1.329.504-.543.653-.603.653-.263 0 .244-.389.864-.865 1.38-1.089 1.179-2.345 1.425-3.64.713zm2.908-6.185c0-.727-.927-1.597-1.701-1.597-.77 0-1.651.714-1.889 1.53-.169.582-.118.6 1.708.6 1.704 0 1.882-.05 1.882-.533zm4.872 6.135c-1.107-.675-1.739-1.93-1.739-3.453 0-3.25 2.56-5.6 4.822-4.43l.831.43-.031-1.005c-.054-1.725-.344-2.606-.843-2.566-.744.06-.529-.163.675-.703l1.131-.507.133 5.601c.119 4.969.187 5.64.607 5.947.432.315.385.382-.532.75-.987.396-1.008.392-1.089-.216l-.082-.62-.954.647c-1.152.782-1.806.81-2.93.125zm3.382-1.076c.438-.438.53-.875.517-2.463-.019-2.491-.432-3.706-1.372-4.035-1.559-.547-2.873.964-2.873 3.303 0 2.817 2.211 4.712 3.728 3.195zM49.935 108.56c1.16-.285 1.198-.46 1.198-5.523 0-5.342-.039-5.474-1.768-5.992-.625-.188-.469-.232.875-.251l1.636-.023 3.69 4.593 3.688 4.593.074-3.339c.098-4.38-.11-5.392-1.15-5.615-.463-.1.091-.17 1.343-.17 1.171 0 1.89.059 1.597.13-1.173.289-1.198.42-1.198 6.23 0 3.058-.09 5.557-.2 5.554-.11-.003-1.874-2.09-3.92-4.638-2.047-2.548-3.814-4.576-3.928-4.505-.245.15-.272 6.182-.035 7.619.137.831.306 1.04.996 1.24.66.192.396.24-1.3.235-1.172-.004-1.89-.066-1.598-.138zm37.358.003c.893-.17 1.117-1.07 1.117-4.487v-3.045h-.799c-.44 0-.799-.12-.799-.266 0-.147.36-.266.799-.266.74 0 .799-.071.799-.958 0-1.962 1.762-3.53 3.584-3.189 1.019.191 1.873 1.023 1.649 1.607-.248.646-.886.48-1.506-.39-.596-.837-1.508-1.047-2.076-.479-.176.176-.32 1.015-.32 1.864v1.545h.932c.513 0 .932.12.932.266 0 .146-.42.266-.932.266h-.932v3.429c0 3.56.078 3.825 1.198 4.1.293.072-.546.128-1.864.126-1.318-.003-2.12-.059-1.782-.123zm86.534 0c.894-.17 1.117-1.07 1.117-4.487v-3.045h-.798c-.44 0-.8-.12-.8-.266 0-.147.36-.266.8-.266.74 0 .798-.071.798-.958 0-1.962 1.763-3.53 3.584-3.189 1.02.191 1.873 1.023 1.65 1.607-.249.646-.887.48-1.506-.39-.596-.837-1.508-1.047-2.077-.479-.176.176-.32 1.015-.32 1.864v1.545h.933c.512 0 .932.12.932.266 0 .146-.42.266-.932.266h-.932v3.429c0 3.64.074 3.867 1.331 4.098.366.067-.473.122-1.864.122s-2.253-.053-1.916-.117zm6.11-.085c.576-.232.599-.366.599-3.586 0-2.847-.065-3.37-.434-3.512-.34-.13-.238-.27.466-.646.495-.264.986-.484 1.092-.49.106-.007.226 1.752.267 3.908.073 3.882.08 3.923.739 4.256.593.3.447.335-1.331.324-1.465-.01-1.838-.077-1.398-.254zm4.792 0c.594-.238.6-.292.6-5.583 0-4.692-.053-5.362-.435-5.509-.339-.13-.237-.27.466-.646.495-.263.988-.484 1.095-.49.107-.006.227 2.65.266 5.905l.072 5.917.666.336c.592.3.447.335-1.332.324-1.464-.01-1.837-.077-1.398-.254zm5.06 0c.593-.238.598-.292.598-5.583 0-4.692-.052-5.362-.434-5.509-.34-.13-.237-.27.466-.646.495-.263.988-.484 1.095-.49.107-.006.227 2.65.266 5.905l.072 5.917.666.336c.592.3.447.335-1.332.324-1.464-.01-1.837-.077-1.398-.254zm28.023-1.855v-2.13h-2.13c-1.716 0-2.13-.078-2.13-.4s.414-.4 2.13-.4h2.13v-2.13c0-1.715.078-2.13.4-2.13.321 0 .4.415.4 2.13v2.13h1.996c1.598 0 1.997.08 1.997.4s-.4.4-1.997.4h-1.997v2.13c0 1.715-.078 2.13-.4 2.13-.321 0-.399-.415-.399-2.13zm9.267 1.94c.926-.177 1.117-1.078 1.117-5.253 0-4.567-.132-5.416-.864-5.526-.404-.061-.232-.228.696-.677l1.233-.595.027 5.255c.015 2.89.109 5.55.21 5.91.106.383.456.733.838.84.366.102-.345.178-1.607.173-1.245-.005-1.987-.063-1.65-.127zm77.691-10.996c-.72-.281-2.007-1.054-2.863-1.718-.855-.665-1.617-1.208-1.693-1.208-.076 0-.611-.313-1.189-.695-2.277-1.507-3.155-5.5-1.785-8.116.748-1.43 2.679-2.807 4.27-3.046 3.964-.594 7.232 3.296 6.293 7.488-.382 1.706-1.627 3.42-2.913 4.012-.584.27-1.065.636-1.069.814-.011.521 1.644 2.253 2.518 2.633 1.309.57-.053.428-1.569-.164zm-.475-3.589c1.287-1.083 1.738-2.363 1.737-4.929 0-1.694-.136-2.564-.538-3.461-.823-1.835-1.452-2.263-3.327-2.263-1.455 0-1.657.073-2.355.855-1.022 1.143-1.393 2.676-1.273 5.257.116 2.505.714 3.963 1.926 4.702 1.193.727 2.857.657 3.83-.16zm-123.663 3.459c-.21-.55.075-1.199.529-1.199.206 0 .524.18.706.4.265.318.265.48 0 .799-.182.22-.5.399-.706.399-.207 0-.445-.18-.529-.4zm130.206-2.89c-.705-.605-.733-.735-.88-4.049-.15-3.37-.163-3.426-.818-3.608-.483-.133-.282-.191.732-.21l1.398-.027.004 2.995c.003 1.87.13 3.246.339 3.662.44.876 1.478.985 2.409.252.722-.568.726-.587.651-3.529-.074-2.9-.088-2.961-.74-3.142-.484-.134-.284-.192.732-.211l1.397-.027v3.429c0 2.677.085 3.5.388 3.75.213.177.513.245.666.15.153-.094.278-.1.278-.013 0 .138-2.259 1.204-2.552 1.204-.061 0-.111-.38-.111-.845v-.845l-.6.546c-1.409 1.283-2.25 1.416-3.293.518zm9.756.173c-1.4-.723-2.135-2.005-2.135-3.724 0-3.423 2.722-5.539 5.325-4.14 1.11.598 2.13 2.414 2.13 3.791 0 1.172-.967 3.129-1.87 3.786-1.01.734-2.366.847-3.45.287zm3.17-.78c.436-.554.552-1.084.552-2.513 0-2.714-.925-4.508-2.327-4.508-1.892 0-2.674 2.138-1.903 5.201.596 2.367 2.505 3.311 3.679 1.82zm4.872.819c-.562-.393-.592-.597-.592-3.994v-3.58h-.685c-.684 0-.684 0 .256-.886.517-.488 1.093-1.237 1.279-1.664.334-.77.339-.763.423.62l.086 1.398h.918c.505 0 .918.12.918.266 0 .147-.42.267-.932.267h-.932v3.336c0 2.84.065 3.362.435 3.504.239.091.658.027.932-.144.755-.472.594.112-.204.74-.84.66-1.125.681-1.902.137zm4.334.096c-.75-.425-.923-.754-.928-1.763-.006-1.36.398-1.84 2.403-2.85 1.566-.788 1.853-1.038 1.853-1.613 0-1.097-.468-1.71-1.308-1.71-.904 0-1.276.39-1.398 1.465-.118 1.051-1.114 1.151-1.233.124-.133-1.139 1.035-1.988 2.734-1.988 2.296 0 2.505.34 2.595 4.228.074 3.226.075 3.227.72 3.201l.645-.026-.726.625c-.928.798-1.432.791-1.804-.025l-.297-.651-.958.65c-1.057.719-1.504.784-2.298.333zm2.736-1.161c.508-.356.592-.66.592-2.13 0-.944-.103-1.716-.229-1.716-.307 0-2.25 1.322-2.496 1.698-.283.433-.247 1.451.072 2.047.332.622 1.254.667 2.061.1zm-71.298-.917v-2.13h-2.13c-1.716 0-2.13-.078-2.13-.4 0-.321.414-.399 2.13-.399h2.13v-2.13c0-1.716.078-2.13.4-2.13.32 0 .399.414.399 2.13v2.13h1.997c1.597 0 1.996.08 1.996.4s-.399.399-1.996.399h-1.997v2.13c0 1.716-.078 2.13-.4 2.13s-.4-.414-.4-2.13zm9.533 1.94c.926-.177 1.117-1.078 1.117-5.252 0-4.568-.132-5.416-.864-5.527-.405-.06-.233-.228.696-.676l1.233-.596.027 5.255c.015 2.89.109 5.55.21 5.911.106.383.456.733.838.84.366.101-.345.178-1.607.172-1.245-.005-1.987-.062-1.65-.127zm8.573-2.606c0-.339.68-.399 4.526-.399 3.846 0 4.526.06 4.526.4 0 .339-.68.399-4.526.399-3.846 0-4.526-.06-4.526-.4zM22.913 90.783c-.264-.318-.257-.424.033-.535.2-.076 52.903-.107 117.118-.07 103.575.061 116.755.114 116.755.468 0 .354-13.183.407-116.788.466-103.17.06-116.828.02-117.118-.33zm259.6-2.134c0-.34.681-.4 4.527-.4s4.526.06 4.526.4-.68.4-4.526.4c-3.846 0-4.526-.06-4.526-.4zm-72.422-1.436l.665-.185.073-5.18c.062-4.43.013-5.223-.34-5.481-.35-.255-.256-.365.592-.706l1.007-.403.085.944.085.943.755-.826c1.33-1.457 2.893-1.343 4.11.301.444.6.556 1.142.556 2.682 0 1.652-.104 2.088-.72 3.018-1.028 1.554-2.447 1.96-4.328 1.238-.382-.147-.427.045-.357 1.523.07 1.497.156 1.73.746 2.026.587.297.415.333-1.465.313-1.294-.013-1.869-.095-1.464-.207zm5.558-4.44c.705-.896.954-2.666.575-4.075-.557-2.068-1.892-2.72-3.302-1.612-.657.517-.701.692-.701 2.76 0 1.83.094 2.328.552 2.91.756.961 2.127.97 2.876.017zm11.216 4.44l.666-.185.072-5.18c.062-4.43.013-5.223-.34-5.481-.349-.255-.256-.365.593-.706l1.006-.403.085.944.085.943.755-.826c1.33-1.457 2.893-1.343 4.11.301.444.6.557 1.142.557 2.682 0 1.652-.104 2.088-.72 3.018-1.028 1.554-2.447 1.96-4.328 1.238-.383-.147-.428.045-.358 1.523.071 1.497.157 1.73.746 2.026.587.297.415.333-1.464.313-1.295-.013-1.87-.095-1.465-.207zm5.559-4.44c.704-.896.954-2.666.574-4.075-.557-2.068-1.892-2.72-3.301-1.612-.657.517-.702.692-.702 2.76 0 1.83.095 2.328.552 2.91.757.961 2.127.97 2.877.017zm-194.598.763c-1.4-.723-2.136-2.005-2.136-3.724 0-3.422 2.723-5.539 5.325-4.139 1.11.597 2.13 2.413 2.13 3.79 0 1.172-.966 3.129-1.87 3.786-1.01.734-2.365.847-3.45.287zm3.17-.78c.436-.554.552-1.084.552-2.513 0-2.714-.926-4.508-2.327-4.508-1.892 0-2.674 2.138-1.903 5.201.596 2.367 2.505 3.311 3.678 1.82zm5.138.819c-.562-.393-.592-.597-.592-3.994v-3.58l-.732-.013-.733-.014.645-.449c.355-.246.984-.982 1.398-1.635l.753-1.188v2.767h.932c.513 0 .932.12.932.266 0 .147-.42.267-.932.267h-.932v3.336c0 2.84.065 3.362.435 3.504.239.091.658.027.932-.144.755-.472.594.112-.205.74-.84.66-1.124.681-1.901.137zm4.334.096c-.75-.425-.923-.754-.928-1.763-.006-1.36.398-1.84 2.403-2.85 1.566-.788 1.853-1.038 1.853-1.613 0-1.097-.469-1.71-1.308-1.71-.905 0-1.276.39-1.398 1.465-.118 1.051-1.114 1.151-1.233.124-.133-1.139 1.035-1.988 2.734-1.988 2.296 0 2.505.34 2.595 4.228.074 3.226.075 3.227.72 3.201l.645-.026-.727.625c-.927.798-1.431.791-1.803-.025l-.297-.651-.958.65c-1.057.719-1.504.784-2.298.333zm2.736-1.161c.508-.355.592-.66.592-2.13 0-.944-.068-1.716-.15-1.716-.338 0-1.358.639-2.047 1.28-1.682 1.57-.247 3.863 1.605 2.566zm16.492 1.297c-.071-.12-.81-1.834-1.644-3.811-.833-1.977-1.759-3.805-2.057-4.06-.525-.452-.484-.467 1.284-.459 1.371.006 1.71.076 1.361.28-.256.149-.466.41-.466.58 0 .454 1.911 4.99 2.101 4.989.132 0 1.123-2.357 2.044-4.857.121-.33-.01-.537-.456-.715-.514-.206-.37-.254.8-.268 1.384-.016 1.412-.003.896.45-.292.255-1.215 2.142-2.051 4.193-1.654 4.054-1.624 3.995-1.812 3.678zm6.333-.136c-.75-.425-.923-.754-.928-1.763-.006-1.36.398-1.84 2.403-2.85 1.566-.788 1.853-1.038 1.853-1.613 0-1.097-.469-1.71-1.308-1.71-.905 0-1.276.39-1.398 1.465-.118 1.051-1.114 1.151-1.233.124-.133-1.139 1.035-1.988 2.734-1.988 2.296 0 2.505.34 2.595 4.228.074 3.226.075 3.227.72 3.201l.645-.026-.727.625c-.928.798-1.431.791-1.803-.025l-.297-.651-.958.65c-1.057.719-1.504.784-2.298.333zm2.736-1.161c.508-.355.592-.66.592-2.13 0-.944-.068-1.716-.15-1.716-.338 0-1.359.639-2.047 1.28-1.682 1.57-.247 3.863 1.605 2.566zm10.544.854c-.704-.606-.732-.736-.88-4.05-.15-3.37-.163-3.426-.818-3.607-.483-.134-.282-.192.732-.211l1.398-.027.004 2.996c.002 1.869.13 3.245.34 3.66.44.877 1.478.986 2.408.254.723-.569.726-.588.651-3.53-.073-2.9-.087-2.961-.74-3.142-.484-.134-.283-.192.732-.211l1.398-.027v3.429c0 2.677.085 3.5.388 3.75.213.177.512.245.665.15.153-.094.278-.1.278-.013 0 .138-2.258 1.204-2.551 1.204-.061 0-.111-.38-.111-.845V82.3l-.6.546c-1.41 1.284-2.25 1.416-3.293.518zm9.24.153c-1.263-.693-1.885-1.97-1.885-3.863 0-1.724.442-2.8 1.486-3.622 1.96-1.542 4.346-.706 5.038 1.767.167.594.145.599-2.645.599-3.148 0-3.237.07-2.447 1.96.831 1.99 3.057 2.677 4.305 1.33.503-.544.653-.604.653-.263 0 .243-.39.864-.865 1.38-1.089 1.179-2.345 1.424-3.64.712zm2.908-6.184c0-.727-.927-1.598-1.702-1.598-.77 0-1.65.715-1.888 1.531-.169.582-.118.6 1.708.6 1.704 0 1.882-.05 1.882-.533zm7.726 6.203c-1.4-.723-2.135-2.005-2.135-3.724 0-3.422 2.723-5.539 5.325-4.14 1.11.598 2.13 2.414 2.13 3.791 0 1.172-.967 3.129-1.87 3.786-1.01.734-2.365.847-3.45.287zm3.17-.78c.436-.554.553-1.084.553-2.513 0-2.714-.926-4.508-2.327-4.508-1.892 0-2.675 2.138-1.903 5.201.596 2.367 2.504 3.311 3.678 1.82zm19.115 1.051c-.07-.12-.81-1.834-1.644-3.811-.833-1.977-1.759-3.805-2.057-4.06-.525-.452-.484-.467 1.285-.459 1.37.006 1.71.076 1.36.28-.256.149-.466.41-.466.58 0 .454 1.911 4.99 2.102 4.989.131 0 1.122-2.357 2.043-4.857.122-.33-.01-.537-.456-.715-.513-.206-.369-.254.8-.268 1.385-.016 1.412-.003.897.45-.293.255-1.216 2.142-2.052 4.193-1.653 4.054-1.624 3.995-1.812 3.678zm6.333-.136c-.75-.425-.923-.754-.928-1.763-.006-1.36.398-1.84 2.403-2.85 1.566-.788 1.853-1.038 1.853-1.613 0-1.097-.468-1.71-1.308-1.71-.904 0-1.276.39-1.397 1.465-.119 1.051-1.114 1.151-1.234.124-.133-1.139 1.035-1.988 2.735-1.988 2.295 0 2.505.34 2.594 4.228.075 3.226.075 3.227.72 3.201l.646-.026-.727.625c-.928.798-1.432.791-1.804-.025l-.297-.651-.957.65c-1.058.719-1.505.784-2.299.333zm2.737-1.161c.507-.355.591-.66.591-2.13 0-.944-.067-1.716-.15-1.716-.338 0-1.358.639-2.046 1.28-1.683 1.57-.248 3.863 1.605 2.566zm15.581.958c-1.106-.675-1.738-1.93-1.738-3.454 0-3.249 2.559-5.599 4.822-4.428l.83.43-.03-1.006c-.055-1.725-.344-2.606-.844-2.566-.743.06-.528-.164.675-.703l1.132-.507.133 5.6c.118 4.97.186 5.64.607 5.948.431.315.384.381-.533.75-.987.395-1.008.391-1.088-.217l-.083-.62-.953.648c-1.152.782-1.806.81-2.93.125zm3.382-1.076c.438-.438.53-.875.518-2.463-.02-2.492-.433-3.706-1.372-4.036-1.56-.547-2.873.965-2.873 3.304 0 2.816 2.21 4.712 3.727 3.195zm8.654 1.202c-.586-.217-1.095-.397-1.132-.4-.036-.001-.066-2.403-.066-5.337 0-4.685-.053-5.354-.435-5.5-.339-.13-.237-.271.466-.646.495-.264.99-.485 1.1-.49.11-.007.2 1.257.2 2.807v2.82l.82-.69c1.064-.895 1.897-1.088 2.797-.646 1.104.54 1.768 1.63 1.913 3.137.347 3.616-2.515 6.115-5.663 4.945zm3.322-.725c1.256-1.347 1.33-4.359.14-5.644-.738-.795-1.712-.89-2.673-.26-.624.408-.656.558-.656 3.046 0 2.402.048 2.65.592 3.031.841.59 1.956.516 2.597-.173zm4.932.802c-.75-.425-.923-.754-.928-1.763-.006-1.36.398-1.84 2.403-2.85 1.566-.788 1.853-1.038 1.853-1.613 0-1.097-.468-1.71-1.308-1.71-.904 0-1.276.39-1.398 1.465-.118 1.051-1.114 1.151-1.233.124-.133-1.139 1.035-1.988 2.734-1.988 2.296 0 2.505.34 2.595 4.228.074 3.226.075 3.227.72 3.201l.645-.026-.726.625c-.928.798-1.432.791-1.804-.025l-.297-.651-.958.65c-1.057.719-1.504.784-2.298.333zm2.736-1.161c.508-.355.592-.66.592-2.13 0-.944-.103-1.716-.229-1.716-.307 0-2.25 1.322-2.496 1.698-.283.433-.247 1.451.072 2.047.332.622 1.254.667 2.061.1zm16.04 1.026c-2.057-1.063-2.784-3.886-1.599-6.21 1.411-2.766 4.848-2.76 6.314.01.766 1.45.768 2.76.007 4.252-1.067 2.088-2.948 2.864-4.721 1.948zm3.171-.78c.435-.554.552-1.084.552-2.513 0-2.714-.926-4.508-2.327-4.508-1.892 0-2.675 2.138-1.903 5.201.596 2.367 2.505 3.311 3.678 1.82zm5.137.819c-.561-.393-.591-.597-.591-3.994v-3.58h-.685c-.684 0-.684 0 .256-.886.517-.488 1.092-1.237 1.278-1.664.335-.77.34-.763.424.62l.086 1.398h.918c.505 0 .918.12.918.266 0 .147-.42.267-.932.267h-.932v3.336c0 2.84.065 3.362.435 3.504.239.091.658.027.932-.144.755-.472.594.112-.205.74-.84.66-1.125.681-1.902.137zm16.849.096c-.75-.425-.923-.754-.928-1.763-.006-1.36.398-1.84 2.403-2.85 1.566-.788 1.853-1.038 1.853-1.613 0-1.097-.469-1.71-1.308-1.71-.905 0-1.276.39-1.398 1.465-.118 1.05-1.114 1.151-1.233.124-.133-1.139 1.035-1.988 2.734-1.988 2.296 0 2.505.34 2.595 4.228.074 3.226.075 3.227.72 3.201l.645-.026-.727.625c-.927.798-1.431.791-1.803-.025l-.297-.651-.958.65c-1.057.719-1.504.784-2.298.333zm2.736-1.161c.508-.356.592-.66.592-2.13 0-.944-.068-1.716-.15-1.716-.338 0-1.358.639-2.047 1.28-1.682 1.57-.247 3.863 1.605 2.566zm14.72.993c-1.255-.673-1.88-1.953-1.88-3.85 0-1.723.442-2.8 1.486-3.62 1.96-1.543 4.346-.707 5.039 1.766.166.594.144.599-2.646.599-3.148 0-3.237.07-2.447 1.96.831 1.99 3.057 2.676 4.305 1.33.753-.813.865-.402.199.725-.47.795-1.784 1.576-2.652 1.576-.273 0-.905-.219-1.404-.486zm2.913-6.17c0-.727-.927-1.598-1.702-1.598-.77 0-1.65.715-1.888 1.531-.169.582-.118.6 1.708.6 1.704 0 1.882-.05 1.882-.533zm10.184 6.476c-.82-.113-.865-.179-.864-1.234l.002-1.115.523.858c.536.88 1.357 1.251 2.416 1.094 1.382-.204 1.35-2.067-.049-2.835a24.051 24.051 0 0 1-1.854-1.182c-.911-.644-1.038-.864-1.038-1.798 0-.708.178-1.24.532-1.595.603-.603.676-.622 2.595-.647l1.397-.019-.02 1.198c-.01.66-.085 1.019-.166.799-.326-.892-1.249-1.598-2.089-1.598-2.008 0-1.886 1.758.2 2.866 2.047 1.087 2.61 1.72 2.61 2.934 0 1.808-1.539 2.643-4.194 2.274zm-223.112-.278c.491-.074.832-.339.998-.776.14-.365.253-2.879.253-5.586v-4.922l-1.522.08c-1.401.074-1.573.154-2.165 1.012l-.643.932.168-.899c.092-.494.168-1.063.168-1.264 0-.298.904-.367 4.793-.367h4.792l-.002 1.265-.002 1.265-.413-.793c-.557-1.067-.817-1.195-2.446-1.2l-1.398-.004V76.9c0 5.782.078 6.219 1.165 6.534.627.182.175.237-1.83.225-1.465-.009-2.327-.066-1.917-.128zm30.207-.082c.593-.239.599-.292.599-5.583 0-4.693-.053-5.363-.434-5.51-.34-.13-.238-.27.466-.645.495-.264.987-.485 1.094-.49.107-.007.227 2.65.266 5.905l.072 5.916.666.337c.593.3.447.335-1.332.323-1.464-.009-1.837-.077-1.397-.253zm25.294 0c.594-.239.6-.292.6-5.583 0-4.693-.053-5.363-.435-5.51-.34-.13-.238-.27.466-.645.495-.264.988-.485 1.095-.49.107-.007.227 2.65.266 5.905l.072 5.916.665.337c.593.3.448.335-1.33.323-1.465-.009-1.838-.077-1.399-.253zm33.03.084c.894-.17 1.118-1.07 1.118-4.487v-3.044h-.799c-.439 0-.798-.12-.798-.267 0-.146.36-.266.798-.266.74 0 .8-.071.8-.957 0-1.963 1.762-3.531 3.583-3.19 1.02.192 1.873 1.024 1.649 1.608-.248.645-.886.48-1.505-.39-.597-.837-1.508-1.048-2.077-.479-.176.176-.32 1.014-.32 1.864v1.544h.932c.513 0 .932.12.932.266 0 .147-.42.267-.932.267h-.932v3.428c0 3.64.074 3.867 1.332 4.098.366.068-.473.123-1.864.123s-2.253-.053-1.916-.118zm28.743-.084c.593-.239.599-.292.599-5.583 0-4.693-.053-5.363-.434-5.51-.34-.13-.238-.27.466-.645.495-.264.987-.485 1.094-.49.107-.007.227 2.65.267 5.905l.071 5.916.666.337c.593.3.447.335-1.332.323-1.464-.009-1.837-.077-1.397-.253zm5.059 0c.576-.232.599-.366.599-3.586 0-2.847-.065-3.37-.434-3.512-.34-.13-.238-.271.466-.646.495-.264.986-.485 1.092-.491.106-.006.226 1.753.266 3.909.073 3.881.08 3.923.74 4.256.592.3.447.335-1.332.323-1.464-.009-1.837-.077-1.397-.253zm33.548 0c.594-.239.6-.292.6-5.583 0-4.693-.053-5.363-.435-5.51-.339-.13-.237-.27.466-.645.495-.264.988-.485 1.095-.49.107-.007.227 2.65.266 5.905l.072 5.916.666.337c.592.3.447.335-1.332.323-1.464-.009-1.837-.077-1.398-.253zm5.06 0c.593-.239.598-.292.598-5.583 0-4.693-.052-5.363-.434-5.51-.34-.13-.238-.27.466-.645.495-.264.988-.485 1.095-.49.107-.007.227 2.65.266 5.905l.072 5.916.665.337c.593.3.448.335-1.33.323-1.465-.009-1.838-.077-1.399-.253zm55.182-.07c.643-.325.668-.436.741-3.353.077-3.065-.144-3.942-.917-3.645-.196.075-.357.076-.357.003 0-.122 2.289-1.18 2.552-1.18.06 0 .11.31.11.688v.69l.82-.69c.45-.379.96-.687 1.132-.685.592.008 1.03.46.928.96-.08.394-.302.485-1.045.428-1.593-.122-1.867.448-1.777 3.692.073 2.638.105 2.77.742 3.093.59.298.424.336-1.465.336-1.89 0-2.055-.038-1.464-.337zM150.81 72.407c-.21-.55.075-1.198.528-1.198.207 0 .525.18.707.4.264.318.264.48 0 .798-.182.22-.5.4-.707.4-.206 0-.444-.18-.528-.4zM4.138 51.797c-2.148-.939-2.82-4.822-1.142-6.607.703-.75 2.168-1.24 3.043-1.021.964.242 1.96 1.42 1.96 2.317v.76H5.452c-2.833 0-2.714-.119-1.934 1.917.616 1.61 2.934 2.107 3.93.842.397-.505.551-.58.551-.27 0 .237-.33.796-.732 1.243-.783.869-2.178 1.234-3.129.819zm2.383-5.683c-.59-1.934-2.626-2.062-3.273-.205l-.28.804h1.868c1.814 0 1.863-.017 1.685-.6zm9.6 5.683c-2.149-.939-2.82-4.822-1.144-6.607.704-.75 2.169-1.24 3.044-1.021.964.242 1.96 1.42 1.96 2.317v.76h-2.547c-2.833 0-2.714-.119-1.935 1.917.583 1.522 2.708 2.053 3.866.965.864-.812.771-.134-.116.85-.783.869-2.178 1.234-3.129.819zm2.382-5.683c-.59-1.934-2.626-2.062-3.273-.205l-.28.804h1.868c1.813 0 1.862-.017 1.685-.6zm4.793 5.511c-1.14-.562-1.788-1.79-1.812-3.43-.025-1.696.684-3.026 1.967-3.691 1.591-.826 3.851-.047 3.664 1.262-.114.798-.766.67-1.274-.251-.55-.997-1.79-1.219-2.49-.446-.576.637-.83 2.102-.59 3.39.458 2.438 3.242 3.108 4.368 1.05.173-.317.294-.384.3-.165.015.726-1.088 2.12-1.903 2.404-1.065.371-1.25.361-2.23-.123zm6.92.036c-.452-.33-.528-.777-.605-3.595-.086-3.094-.111-3.217-.666-3.218-.551-.001-.545-.028.137-.6.392-.328.96-1.016 1.263-1.529l.55-.932.002 1.265c0 1.227.024 1.265.8 1.265.439 0 .798.12.798.266 0 .146-.36.266-.799.266h-.798v2.937c0 2.472.069 2.964.434 3.104.24.092.666.023.948-.153.465-.29.486-.27.225.218-.282.526-1.073 1.083-1.539 1.083-.128 0-.465-.17-.75-.377zm9.835-.005c-2.985-1.3-2.698-6.433.412-7.365 1.39-.416 2.74.053 3.675 1.28 1.422 1.864.634 5.239-1.424 6.099-1.085.453-1.595.45-2.663-.014zm2.828-.683c.812-.812.766-4.1-.075-5.352-.675-1.006-1.84-1.316-2.668-.71-1.327.971-.937 5.443.55 6.31.736.428 1.617.329 2.193-.248zm20.769-.094v-1.027l.772.827c.966 1.034 2.488 1.167 2.973.261.435-.813-.056-1.577-1.512-2.35-1.327-.704-2.233-1.69-2.233-2.43 0-.265.289-.818.643-1.23.573-.666.818-.746 2.263-.746h1.62V46.526l-.608-.905c-.7-1.042-1.972-1.35-2.676-.645-.67.67-.181 1.41 1.564 2.372 1.707.941 2.37 1.865 2.104 2.927-.309 1.23-1.062 1.629-3.074 1.63h-1.836V50.88zm10.893.661c-.705-.57-.847-2.102-.26-2.808.194-.235 1.117-.792 2.05-1.237 1.254-.599 1.695-.949 1.695-1.345 0-.96-.507-1.567-1.308-1.567-.867 0-1.264.38-1.396 1.331-.117.843-.861.877-.979.045-.175-1.24 1.443-2.15 3.153-1.775 1.413.31 1.594.712 1.599 3.547.004 2.794.196 3.418.967 3.147.323-.114.23.06-.268.506-.848.756-1.237.74-1.642-.062-.27-.539-.278-.538-1.19.087-1.108.76-1.612.787-2.421.131zm2.893-.981c.488-.342.592-.668.592-1.864 0-.797-.065-1.45-.144-1.45-.08 0-.614.24-1.19.534-1.534.783-2.021 1.932-1.177 2.776.53.53 1.165.532 1.919.004zm5.052 1.297c-.945-.11-.999-.167-.999-1.06v-.944l.773.827c.965 1.034 2.487 1.167 2.973.261.435-.813-.057-1.577-1.513-2.35-1.327-.704-2.233-1.69-2.233-2.43 0-.265.29-.818.643-1.23.574-.666.818-.746 2.263-.746h1.62V46.526l-.607-.905c-.7-1.042-1.972-1.35-2.676-.645-.67.67-.182 1.41 1.563 2.372 1.707.941 2.37 1.865 2.104 2.927-.338 1.347-1.584 1.85-3.912 1.58zm16.941-.2c-2.985-1.3-2.698-6.433.412-7.365 1.39-.416 2.74.053 3.675 1.28 1.422 1.864.634 5.239-1.424 6.098-1.085.454-1.595.451-2.663-.013zm2.828-.683c.812-.812.766-4.1-.075-5.352-.675-1.006-1.84-1.316-2.668-.71-1.327.971-.937 5.443.55 6.31.736.428 1.617.329 2.193-.248zm15.012.683c-2.986-1.3-2.699-6.433.412-7.365 1.39-.416 2.74.053 3.674 1.28 1.422 1.864.635 5.239-1.423 6.098-1.086.454-1.596.451-2.663-.013zm2.828-.683c.812-.812.766-4.1-.075-5.352-.676-1.006-1.84-1.316-2.669-.71-1.327.971-.936 5.443.55 6.31.736.428 1.618.329 2.194-.248zm6.244.666c-.115-.293-.735-1.902-1.377-3.575-.642-1.674-1.37-3.198-1.62-3.387-.385-.293-.219-.345 1.13-.352 1.397-.007 1.524.034 1.088.353-.475.348-.46.455.408 2.796.496 1.339.968 2.434 1.05 2.434.08 0 .476-.754.877-1.676.638-1.464.692-1.786.426-2.55-.168-.481-.56-.977-.87-1.103-.392-.158.01-.224 1.297-.214 1.025.008 1.665.066 1.42.131-.243.065-.496.26-.56.435-.126.337 1.424 4.711 1.668 4.711.08 0 .536-1.047 1.014-2.326.812-2.17.84-2.35.41-2.663-.396-.29-.301-.336.686-.336 1.118 0 1.133.011.61.466-.295.256-1.102 1.993-1.795 3.86-.693 1.868-1.297 3.395-1.342 3.395-.046 0-.47-1.018-.943-2.263-.473-1.245-.94-2.263-1.04-2.263-.099 0-.663 1.048-1.253 2.33-.878 1.906-1.112 2.233-1.284 1.797zm9.199-.76v-1.027l.772.827c.966 1.034 2.488 1.167 2.973.261.436-.813-.056-1.578-1.512-2.35-1.327-.704-2.233-1.69-2.233-2.43 0-.265.29-.818.643-1.23.573-.666.818-.746 2.263-.746h1.62V46.526l-.607-.905c-.7-1.042-1.972-1.35-2.676-.645-.67.67-.182 1.41 1.563 2.372 1.707.941 2.37 1.865 2.104 2.927-.308 1.23-1.062 1.629-3.073 1.63h-1.837V50.88zm7.278.742c-.223-.582.281-1.001.95-.79.658.21.738.815.137 1.046-.66.253-.914.194-1.087-.256zM9.863 51.578c.22-.084.487-.284.595-.445.108-.161.198-2.345.2-4.853.003-3.803-.065-4.618-.41-4.904-.362-.3-.308-.388.43-.698.464-.195.887-.355.94-.355.054 0 .13 2.423.17 5.384l.072 5.384.666.337c.596.301.471.334-1.199.32-1.025-.01-1.684-.086-1.464-.17zm23.963 0c.695-.264.791-.673.795-3.38.003-1.98-.096-2.752-.396-3.083-.363-.402-.314-.468.533-.728l.932-.287v3.422c0 3.233.033 3.444.592 3.836.56.392.502.413-1.132.393-.947-.012-1.543-.09-1.324-.173zm12.457-.084c.59-.237.605-.33.532-3.378-.067-2.795-.125-3.13-.54-3.097-.97.077-.38-.285 1.33-.818.537-.167.6-.096.6.68v.867l.732-.697c1.035-.984 1.948-1.154 2.746-.509.6.486.658.746.782 3.538.127 2.886.16 3.027.798 3.349.591.297.44.332-1.33.308-1.1-.015-1.758-.087-1.465-.16.293-.073.62-.269.728-.435.288-.445.246-4.55-.056-5.343-.308-.81-1.268-.916-2.28-.253-.624.409-.656.557-.656 3.07 0 2.49.035 2.655.6 2.882.442.177.11.24-1.265.24-1.394 0-1.71-.061-1.256-.244zm12.838.084c.696-.265.79-.674.795-3.434.003-2.154-.082-2.768-.423-3.052-.38-.314-.326-.389.466-.656l.893-.301.133 3.478c.13 3.384.151 3.488.799 3.815.596.301.47.334-1.198.32-1.025-.01-1.684-.086-1.465-.17zm33.549-.15c.646-.326.668-.43.74-3.457l.076-3.122h-.674c-.371 0-.674-.12-.674-.266 0-.146.299-.266.665-.266.535 0 .666-.133.666-.674 0-1.688 1.486-3.32 3.023-3.32 1.097 0 2.268 1.006 1.888 1.621-.263.426-.804.262-1.4-.423-.626-.72-1.425-.864-1.846-.333-.144.183-.343.962-.44 1.73l-.178 1.399h1.074c.59 0 1.074.12 1.074.266 0 .146-.48.266-1.065.266h-1.065l.031 2.463c.045 3.469.197 4.019 1.17 4.227.484.103-.09.18-1.467.198-1.987.024-2.182-.014-1.598-.309zm13.58.15c.219-.084.487-.284.594-.445.108-.161.198-2.345.2-4.853.003-3.803-.065-4.618-.41-4.904-.362-.3-.308-.388.43-.698.464-.195.888-.355.941-.355.053 0 .13 2.423.17 5.384l.071 5.384.666.337c.596.301.472.334-1.198.32-1.025-.01-1.684-.086-1.465-.17zm4.526 0c.22-.084.487-.284.595-.445.107-.161.197-2.345.2-4.853.002-3.803-.065-4.618-.41-4.904-.362-.3-.308-.388.43-.698.464-.195.887-.355.94-.355.054 0 .13 2.423.17 5.384l.072 5.384.665.337c.597.301.472.334-1.198.32-1.025-.01-1.684-.086-1.464-.17zm32.04-6.613c-.223-.582.281-1.002.95-.79.658.21.738.815.137 1.045-.66.254-.914.194-1.087-.255zM34.692 41.478c-.46-.186-.418-.8.066-.985.534-.205 1.199.07 1.199.496 0 .267-.664.75-.888.644a18.794 18.794 0 0 0-.377-.155zm25.295 0c-.46-.186-.418-.8.066-.985.533-.205 1.198.07 1.198.496 0 .267-.663.75-.887.644a18.792 18.792 0 0 0-.377-.155zm14.045-3.523l.665-.185.073-4.62c.061-3.84.004-4.695-.333-5.069-.372-.41-.327-.473.526-.735.887-.272.933-.255.933.354 0 .78.193.803.927.113.31-.29.931-.602 1.381-.692.66-.132.984-.016 1.666.595 2.518 2.256.835 7.642-2.244 7.18-.439-.065-1.008-.202-1.264-.304-.406-.16-.466-.014-.466 1.125 0 1.32.33 2.028 1.065 2.291.22.078-.5.14-1.598.137-1.216-.003-1.737-.078-1.331-.19zm5.045-4.069c.65-.697.934-2.028.719-3.357-.348-2.144-1.995-3.084-3.286-1.875-.613.573-.656.77-.571 2.655.069 1.538.215 2.174.598 2.597.66.73 1.85.72 2.54-.02zm33.829 4.069l.665-.185.073-4.62c.061-3.84.004-4.695-.333-5.069-.372-.41-.327-.473.526-.735.887-.272.933-.255.933.354 0 .78.193.803.927.113.31-.29.931-.602 1.381-.692.66-.132.984-.016 1.666.595 2.518 2.256.835 7.642-2.244 7.18-.44-.065-1.008-.202-1.264-.304-.406-.16-.466-.014-.466 1.125 0 1.32.33 2.028 1.065 2.291.22.078-.5.14-1.598.137-1.216-.003-1.737-.078-1.331-.19zm5.045-4.069c.65-.697.934-2.028.719-3.357-.348-2.144-1.995-3.084-3.286-1.875-.613.573-.656.77-.571 2.655.069 1.538.215 2.174.598 2.597.66.73 1.85.72 2.54-.02zm103.123 3.797c-1.316-.615-1.393-1.002-.429-2.148.526-.626.627-.912.4-1.14-.448-.446-.37-1.12.209-1.83.507-.623.507-.635-.061-1.243-.738-.791-.773-2.45-.07-3.228.75-.829 2.3-1.222 3.36-.853.475.166 1.325.301 1.89.301.563 0 1.025.12 1.025.267 0 .146-.285.266-.633.266-.59 0-.624.08-.503 1.16.114 1.012.028 1.275-.676 2.063-.719.805-.957.904-2.17.904-1.389 0-1.969.38-1.69 1.107.096.25.68.357 1.955.357 2.29 0 3.117.306 3.35 1.237.57 2.266-3.249 4.047-5.957 2.78zm4.823-1.107c.785-.617.921-1.437.28-1.683-.23-.089-1.349-.162-2.484-.162-1.95 0-2.083.038-2.435.695-.34.637-.32.735.251 1.198.9.729 3.436.701 4.388-.048zm-1.383-5.214c.556-.503.648-1.95.181-2.839-.996-1.892-3.157-.873-2.801 1.32.284 1.749 1.553 2.485 2.62 1.519zm36.832 6.636c.293-.073.62-.269.728-.435.248-.382.267-3.897.021-3.897-.1 0-.436.238-.745.529-.31.29-.924.6-1.366.689-1.72.344-3.292-2.083-2.89-4.464.36-2.126 2.916-3.922 4.534-3.185.477.217.833.228 1.192.036.495-.265.514-.109.584 4.984l.072 5.257.666.336c.59.3.442.334-1.332.31-1.098-.015-1.757-.087-1.464-.16zm.445-4.506c.654-.592.706-4.453.072-5.358-.603-.862-2.038-.809-2.754.101-1.561 1.984-.668 5.698 1.37 5.698.454 0 1.044-.199 1.312-.441zM64.846 34.756c-2.148-.938-2.82-4.821-1.143-6.607.704-.749 2.168-1.24 3.043-1.02.965.241 1.96 1.419 1.96 2.316v.76H66.16c-2.833 0-2.713-.118-1.934 1.917.616 1.61 2.935 2.108 3.93.843.397-.505.552-.58.552-.27 0 .236-.33.796-.733 1.243-.783.868-2.178 1.233-3.128.818zm2.383-5.683c-.59-1.933-2.626-2.061-3.273-.205l-.28.804h1.867c1.814 0 1.863-.017 1.686-.599zm35.678 5.512c-1.139-.562-1.788-1.791-1.811-3.43-.025-1.696.684-3.026 1.967-3.692 1.591-.825 3.851-.046 3.664 1.263-.114.798-.767.669-1.275-.252-.55-.996-1.79-1.218-2.49-.445-.575.636-.83 2.102-.588 3.389.457 2.439 3.241 3.108 4.367 1.05.173-.316.294-.383.299-.164.016.726-1.087 2.12-1.903 2.404-1.064.371-1.249.36-2.23-.123zm25.042.171c-2.148-.938-2.82-4.821-1.142-6.607.703-.749 2.168-1.24 3.043-1.02.964.241 1.96 1.419 1.96 2.316v.76h-2.547c-2.833 0-2.714-.118-1.934 1.917.582 1.523 2.707 2.053 3.865.965.864-.811.771-.134-.116.85-.783.87-2.178 1.234-3.129.82zm2.383-5.683c-.59-1.933-2.626-2.061-3.273-.205l-.28.804h1.868c1.814 0 1.863-.017 1.685-.599zm9.3 5.542c-2.985-1.3-2.698-6.433.412-7.364 1.39-.417 2.74.053 3.675 1.279 1.422 1.864.634 5.239-1.424 6.099-1.085.453-1.595.45-2.662-.014zm2.829-.682c.812-.812.765-4.1-.075-5.353-.676-1.006-1.84-1.316-2.67-.71-1.326.971-.936 5.443.551 6.31.736.428 1.617.329 2.194-.247zm14.763.652c-1.139-.562-1.787-1.791-1.811-3.43-.025-1.696.684-3.026 1.967-3.692 1.591-.825 3.851-.046 3.664 1.263-.114.798-.766.669-1.274-.252-.55-.996-1.79-1.218-2.49-.445-.576.636-.83 2.102-.59 3.389.458 2.439 3.242 3.108 4.368 1.05.173-.316.294-.383.299-.164.016.726-1.087 2.12-1.903 2.404-1.064.371-1.248.36-2.23-.123zm6.247-.086c-.704-.57-.846-2.102-.26-2.808.195-.235 1.118-.792 2.05-1.237 1.254-.598 1.696-.948 1.696-1.345 0-.96-.507-1.567-1.308-1.567-.867 0-1.264.38-1.396 1.332-.117.842-.861.876-.979.044-.175-1.239 1.443-2.15 3.153-1.774 1.413.31 1.594.711 1.599 3.546.004 2.794.196 3.418.967 3.147.323-.113.23.06-.268.506-.848.756-1.237.741-1.642-.062-.27-.538-.278-.538-1.19.088-1.108.759-1.612.786-2.422.13zm2.894-.98c.488-.343.592-.669.592-1.865 0-.797-.065-1.449-.144-1.449-.08 0-.614.24-1.19.533-1.534.783-2.021 1.932-1.177 2.776.53.53 1.165.532 1.919.004zm10.296 1.066c-1.139-.562-1.787-1.791-1.811-3.43-.025-1.696.684-3.026 1.967-3.692 1.591-.825 3.851-.046 3.664 1.263-.114.798-.766.669-1.274-.252-.55-.996-1.79-1.218-2.49-.445-.576.636-.83 2.102-.59 3.39.458 2.438 3.242 3.107 4.368 1.05.173-.317.294-.384.299-.165.016.726-1.087 2.12-1.903 2.404-1.064.371-1.249.36-2.23-.123zm6.767-.096c-.58-.47-.64-.752-.762-3.65-.13-3.076-.147-3.145-.799-3.326-.484-.134-.286-.191.724-.21l1.39-.027.074 3.1c.086 3.527.305 3.938 1.8 3.374 1.07-.404 1.033.051-.06.718-1.083.66-1.572.664-2.367.021zm3.482-.328c-.009-.492-.002-2.124.015-3.626.03-2.618.005-2.743-.583-2.979-.51-.204-.398-.249.65-.263l1.265-.017v3.176c0 2.44.091 3.267.392 3.568.344.344.315.41-.242.55-.348.088-.824.232-1.057.322-.334.128-.427-.026-.44-.731zm8.779.338c-.704-.57-.847-2.102-.26-2.808.195-.235 1.117-.792 2.05-1.237 1.254-.598 1.695-.948 1.695-1.345 0-.96-.507-1.567-1.308-1.567-.866 0-1.264.38-1.396 1.332-.116.842-.86.876-.978.044-.176-1.239 1.442-2.15 3.152-1.774 1.414.31 1.595.711 1.6 3.546.003 2.794.195 3.418.967 3.147.323-.113.23.06-.269.506-.847.756-1.237.741-1.641-.062-.271-.538-.278-.538-1.19.088-1.109.759-1.612.786-2.422.13zm2.893-.98c.489-.343.592-.669.592-1.865 0-.797-.065-1.449-.144-1.449-.079 0-.614.24-1.189.533-1.534.783-2.022 1.932-1.177 2.776.53.53 1.165.532 1.918.004zm5.236 1.101c-.453-.33-.528-.777-.606-3.594-.085-3.094-.11-3.217-.665-3.219-.552 0-.546-.028.136-.599.393-.329.961-1.017 1.264-1.53l.55-.931.002 1.264c.002 1.228.025 1.265.8 1.265.44 0 .799.12.799.266 0 .147-.36.267-.799.267h-.799v2.937c0 2.471.07 2.964.435 3.104.239.092.665.022.948-.154.465-.29.486-.27.225.218-.282.526-1.074 1.084-1.54 1.084-.127 0-.465-.17-.75-.378zm29.821 0c-.453-.33-.528-.777-.606-3.594-.085-3.094-.11-3.217-.665-3.219-.551 0-.545-.028.136-.599.393-.329.962-1.017 1.264-1.53l.55-.931.002 1.264c.002 1.228.025 1.265.8 1.265.44 0 .799.12.799.266 0 .147-.36.267-.799.267h-.799v2.937c0 2.471.07 2.964.435 3.104.24.092.666.022.948-.154.465-.29.486-.27.225.218-.282.526-1.074 1.084-1.54 1.084-.127 0-.465-.17-.749-.378zm13.861.136c-2.148-.938-2.82-4.821-1.142-6.607.703-.749 2.168-1.24 3.043-1.02.964.241 1.96 1.419 1.96 2.316v.76h-2.547c-2.833 0-2.714-.118-1.935 1.917.617 1.61 2.935 2.108 3.93.843.397-.505.552-.581.552-.27 0 .236-.33.796-.732 1.243-.783.868-2.178 1.233-3.129.818zm2.383-5.683c-.59-1.933-2.626-2.061-3.273-.205l-.28.804h1.868c1.813 0 1.862-.017 1.685-.599zm16.884 5.416c-.58-.47-.639-.752-.762-3.65-.13-3.076-.147-3.145-.798-3.326-.484-.134-.287-.191.723-.21l1.39-.027.075 3.1c.085 3.527.305 3.938 1.799 3.374 1.071-.404 1.033.051-.06.718-1.083.66-1.572.664-2.367.021zm3.483-.328a183.69 183.69 0 0 1 .015-3.626c.03-2.618.005-2.743-.584-2.979-.509-.204-.398-.249.651-.263l1.265-.017v3.176c0 2.44.09 3.267.391 3.568.345.344.316.41-.241.55-.348.088-.824.232-1.057.322-.335.128-.428-.026-.44-.731zm5.441.454c-2.985-1.3-2.698-6.433.412-7.364 1.39-.417 2.74.053 3.675 1.279 1.422 1.864.634 5.239-1.424 6.099-1.085.453-1.595.45-2.663-.014zm2.829-.682c.812-.812.765-4.1-.075-5.353-.676-1.006-1.84-1.316-2.67-.71-1.326.971-.936 5.443.551 6.31.736.428 1.617.329 2.194-.247zm4.643.687c-.452-.33-.527-.777-.605-3.594-.086-3.094-.111-3.217-.666-3.219-.551 0-.545-.028.137-.599.392-.329.96-1.017 1.264-1.53l.55-.931v1.264c0 1.228.024 1.265.8 1.265.439 0 .798.12.798.266 0 .147-.36.267-.798.267h-.8v2.937c0 2.471.07 2.964.435 3.104.24.092.666.022.948-.154.465-.29.486-.27.225.218-.281.526-1.073 1.084-1.539 1.084-.128 0-.465-.17-.75-.378zm4.12-.12c-.705-.57-.847-2.103-.261-2.809.195-.235 1.118-.792 2.05-1.237 1.254-.598 1.696-.948 1.696-1.345 0-.96-.507-1.567-1.308-1.567-.867 0-1.264.38-1.396 1.332-.117.842-.861.876-.979.044-.175-1.239 1.443-2.15 3.153-1.774 1.413.31 1.594.711 1.599 3.546.005 2.794.196 3.418.967 3.147.323-.113.23.06-.268.506-.848.756-1.237.741-1.642-.062-.27-.538-.278-.538-1.19.088-1.108.759-1.612.786-2.422.13zm2.893-.982c.488-.342.592-.668.592-1.864 0-.797-.065-1.449-.144-1.449-.08 0-.614.24-1.19.533-1.534.783-2.021 1.932-1.177 2.776.53.53 1.165.532 1.919.004zm15.337 1.097c-2.986-1.3-2.699-6.433.412-7.364 1.39-.417 2.74.053 3.674 1.279 1.422 1.864.634 5.239-1.423 6.099-1.086.453-1.596.45-2.663-.014zm2.828-.682c.812-.812.766-4.1-.075-5.353-.676-1.006-1.84-1.316-2.669-.71-1.327.971-.936 5.443.55 6.31.736.428 1.618.329 2.194-.247zm-261.335.565l.8-.17.072-5.005.072-5.004-1.404.08c-1.306.076-1.436.146-1.869 1.013l-.465.932-.001-.843c0-1.724-.105-1.686 4.688-1.686h4.364l-.03 1.264c-.017.696-.09 1.026-.16.733-.257-1.05-.894-1.465-2.253-1.465h-1.296l.073 4.99.072 4.99.799.17c.44.095-.336.171-1.73.171-1.395 0-2.172-.076-1.732-.17zm7.522-.041c.59-.238.6-.309.6-5.122 0-3.128-.104-4.984-.287-5.168-.205-.204-.04-.372.572-.585.472-.165.9-.3.952-.3.052 0 .094 1.22.094 2.713v2.712l.732-.696c1.125-1.071 2.032-1.19 2.849-.373.641.641.679.833.679 3.472 0 2.584.044 2.823.591 3.207.559.391.488.413-1.264.384-1.021-.017-1.617-.091-1.324-.164.293-.074.62-.27.728-.435.288-.446.246-4.551-.056-5.344-.308-.81-1.268-.916-2.28-.253-.624.41-.655.558-.655 3.07 0 2.49.034 2.655.599 2.882.442.178.11.24-1.265.24s-1.707-.062-1.265-.24zm28.224 0c.572-.23.599-.378.599-3.258 0-1.798-.116-3.133-.287-3.304-.204-.204-.04-.372.573-.586 1.108-.386 1.045-.411 1.045.417v.716l.524-.562c.741-.796 1.581-1.01 2.067-.524.595.596.172 1.028-.823.841-1.46-.273-1.803.402-1.712 3.365.073 2.353.114 2.508.743 2.826.592.299.446.334-1.331.323-1.465-.01-1.838-.078-1.398-.254zm5.658.08c.694-.264.79-.673.795-3.38.003-1.98-.096-2.751-.396-3.083-.364-.401-.315-.468.532-.728l.933-.286v3.421c0 3.234.032 3.444.591 3.836.561.393.502.413-1.131.393-.948-.011-1.544-.089-1.324-.173zm4.468-.083c.59-.237.606-.331.533-3.378-.067-2.796-.126-3.13-.541-3.097-.969.077-.38-.286 1.331-.818.537-.168.6-.097.6.68v.866l.731-.696c1.126-1.071 2.033-1.19 2.85-.373.64.642.678.833.678 3.472 0 2.584.044 2.823.592 3.207.559.391.487.413-1.265.384-1.02-.017-1.617-.091-1.324-.164.293-.074.62-.27.728-.435.289-.446.246-4.55-.056-5.344-.307-.81-1.267-.916-2.279-.253-.624.41-.656.558-.656 3.07 0 2.49.034 2.655.6 2.882.441.178.11.24-1.266.24-1.393 0-1.71-.06-1.256-.243zm16.034.083c.694-.264.79-.673.795-3.38.003-1.98-.096-2.751-.396-3.083-.364-.401-.315-.468.532-.728l.933-.286v3.421c0 3.234.032 3.444.591 3.836.561.393.502.413-1.131.393-.948-.011-1.544-.089-1.324-.173zm12.78 0c.22-.083.488-.283.595-.445.108-.16.198-2.345.2-4.853.003-3.803-.065-4.617-.41-4.904-.362-.3-.308-.388.43-.698.464-.195.888-.355.941-.355.053 0 .13 2.423.17 5.384l.071 5.384.666.337c.596.302.472.335-1.198.32-1.025-.01-1.684-.086-1.465-.17zm24.763-.15c.645-.326.667-.429.74-3.457l.075-3.121h-.674c-.37 0-.674-.12-.674-.267 0-.146.3-.266.666-.266.534 0 .665-.132.665-.674 0-1.688 1.486-3.32 3.023-3.32 1.098 0 2.269 1.006 1.888 1.622-.263.425-.804.261-1.4-.424-.626-.72-1.425-.864-1.845-.332-.145.183-.343.961-.441 1.73l-.178 1.398h1.074c.591 0 1.074.12 1.074.266 0 .147-.479.267-1.065.267h-1.065l.032 2.463c.044 3.468.196 4.018 1.169 4.226.484.104-.09.181-1.467.198-1.986.024-2.182-.014-1.597-.309zm23.963.15c.22-.083.487-.283.595-.445.108-.16.197-2.345.2-4.853.003-3.803-.065-4.617-.41-4.904-.362-.3-.308-.388.43-.698.464-.195.887-.355.94-.355.054 0 .13 2.423.17 5.384l.072 5.384.666.337c.596.302.471.335-1.199.32-1.025-.01-1.684-.086-1.464-.17zm20.502 0c.22-.083.487-.283.595-.445.108-.16.197-2.345.2-4.853.003-3.803-.065-4.617-.41-4.904-.362-.3-.308-.388.43-.698.464-.195.887-.355.94-.355.054 0 .13 2.423.17 5.384l.072 5.384.666.337c.596.302.471.335-1.199.32-1.025-.01-1.684-.086-1.464-.17zm16.508 0c.694-.264.79-.673.795-3.38.003-1.98-.096-2.751-.396-3.083-.364-.401-.315-.468.532-.728l.933-.286v3.421c0 3.234.032 3.444.592 3.836.56.393.501.413-1.132.393-.948-.011-1.544-.089-1.324-.173zm4.468-.083c.591-.237.606-.331.533-3.378-.067-2.796-.125-3.13-.541-3.097-.968.077-.379-.286 1.331-.818.537-.168.6-.097.6.68v.866l.732-.696c1.125-1.071 2.032-1.19 2.848-.373.642.642.68.833.68 3.472 0 2.584.044 2.823.591 3.207.559.391.488.413-1.264.384-1.022-.017-1.617-.091-1.324-.164.292-.074.62-.27.728-.435.288-.446.245-4.55-.056-5.344-.308-.81-1.268-.916-2.28-.253-.624.41-.656.558-.656 3.07 0 2.49.035 2.655.6 2.882.442.178.11.24-1.265.24-1.394 0-1.71-.06-1.256-.243zm25.287.003c.59-.238.599-.31.599-5.122 0-3.128-.103-4.984-.287-5.168-.204-.204-.04-.372.573-.586.472-.164.9-.299.952-.299.051 0 .093 1.22.093 2.713v2.712l.732-.697c1.126-1.07 2.033-1.189 2.85-.372.64.641.678.833.678 3.472 0 2.584.044 2.823.592 3.207.559.391.488.413-1.265.383-1.02-.017-1.617-.09-1.324-.164.293-.073.62-.268.728-.435.289-.445.246-4.55-.055-5.343-.308-.81-1.268-.916-2.28-.253-.624.409-.656.558-.656 3.07 0 2.49.034 2.655.6 2.882.441.177.11.24-1.266.24-1.375 0-1.706-.063-1.264-.24zm61.572-.07c.646-.326.668-.429.741-3.457l.075-3.121h-.674c-.37 0-.674-.12-.674-.267 0-.146.3-.266.665-.266.535 0 .666-.133.666-.674 0-1.688 1.486-3.32 3.023-3.32 1.098 0 2.269 1.006 1.888 1.622-.263.425-.804.261-1.4-.424-.626-.72-1.425-.864-1.845-.333-.145.184-.344.962-.441 1.731l-.178 1.398h1.074c.59 0 1.074.12 1.074.266 0 .147-.479.267-1.065.267h-1.065l.032 2.462c.044 3.47.196 4.019 1.169 4.227.484.104-.09.181-1.467.198-1.987.024-2.182-.014-1.598-.309zm13.247.07c.572-.23.599-.378.599-3.258 0-1.799-.116-3.133-.287-3.304-.204-.205-.04-.372.573-.586 1.108-.386 1.045-.411 1.045.417v.715l.524-.561c.741-.797 1.581-1.01 2.067-.524.595.595.172 1.028-.823.841-1.46-.273-1.803.402-1.712 3.365.073 2.353.114 2.508.743 2.825.592.3.446.335-1.331.323-1.465-.009-1.838-.077-1.398-.253zm17.373-3.586c0-.651.045-.666 1.997-.666 1.953 0 1.997.015 1.997.666 0 .65-.044.665-1.997.665-1.952 0-1.997-.015-1.997-.665zm-7.987-1.867c0-.153 2.9-4.935 3.199-5.274.168-.191 3.457 4.792 3.457 5.238 0 .597-.628-.12-1.833-2.091-.76-1.245-1.43-2.264-1.488-2.264-.057 0-.72 1.019-1.472 2.264-.752 1.244-1.478 2.263-1.615 2.263s-.248-.061-.248-.136zM89.275 24.437c-.46-.185-.418-.799.067-.985.533-.205 1.198.07 1.198.496 0 .267-.663.75-.887.644a18.807 18.807 0 0 0-.378-.155zm20.502 0c-.46-.185-.418-.799.067-.985.533-.205 1.198.07 1.198.496 0 .267-.663.75-.887.644a18.648 18.648 0 0 0-.378-.155zm98.516 0c-.459-.185-.418-.799.067-.985.533-.205 1.198.07 1.198.496 0 .267-.663.75-.887.644a18.958 18.958 0 0 0-.377-.155zM55.61 15.38c.192-.077.422-.068.51.02.089.09-.069.152-.35.14-.31-.012-.373-.075-.16-.16zm-2.213-.506c-.586-.21-1.665-.832-2.397-1.384a31.917 31.917 0 0 0-2.589-1.736c-3.534-2.059-3.669-7.227-.25-9.627.992-.696 1.392-.81 2.84-.81 1.442 0 1.847.115 2.818.798 3.58 2.522 2.963 8.496-1.037 10.016l-.644.245.657.86c.362.474 1.052 1.13 1.534 1.46.988.675.646.74-.932.178zm-.564-3.33c1.472-1.157 2.072-3.724 1.507-6.446-.442-2.125-1.63-3.382-3.197-3.382-2.299 0-3.498 1.475-3.684 4.532-.14 2.277.314 3.876 1.408 4.97.735.735 1.08.882 2.07.882.803 0 1.42-.18 1.896-.556zm-23.002-.642a285.357 285.357 0 0 1-1.914-4.393c-1.577-3.709-2.037-4.526-2.69-4.79-.41-.164.095-.235 1.677-.235 1.698 0 2.105.063 1.63.253-.535.214-.611.387-.488 1.115.213 1.26 2.891 7.187 3.134 6.934.26-.271 2.913-6.855 2.913-7.23 0-.152-.267-.464-.592-.692-.561-.393-.503-.414 1.132-.404 1.638.01 1.689.03 1.029.388-.558.304-1.115 1.41-2.843 5.648l-2.15 5.27zm8.079 1.313c-.224-.582.28-1.001.949-.789.658.21.738.815.138 1.045-.661.254-.915.194-1.087-.256zm21.174-.09c-.58-.47-.639-.752-.762-3.65-.13-3.076-.147-3.146-.798-3.326-.484-.134-.287-.192.723-.211l1.39-.027.075 3.1c.085 3.527.305 3.938 1.799 3.374 1.071-.404 1.033.051-.06.718-1.083.66-1.572.665-2.367.021zm3.483-.33c-.01-.49-.002-2.122.014-3.625.03-2.618.005-2.743-.583-2.979-.509-.204-.398-.249.651-.263l1.265-.017v3.176c0 2.44.09 3.267.391 3.568.345.344.316.41-.241.55-.348.088-.824.232-1.057.322-.335.128-.428-.026-.44-.731zm5.442.455c-2.986-1.3-2.699-6.433.411-7.364 1.39-.417 2.74.053 3.675 1.279 1.422 1.864.634 5.239-1.424 6.099-1.085.453-1.595.45-2.662-.014zm2.828-.682c.812-.812.765-4.1-.075-5.353-.676-1.006-1.84-1.315-2.67-.71-1.326.971-.936 5.443.551 6.31.736.428 1.617.329 2.194-.247zm4.644.687c-.453-.33-.528-.777-.606-3.594-.086-3.094-.111-3.217-.666-3.219-.551 0-.545-.028.137-.599.392-.328.96-1.017 1.264-1.53l.55-.931v1.264c.002 1.228.025 1.265.8 1.265.44 0 .8.12.8.266 0 .147-.36.267-.8.267h-.798V8.38c0 2.471.069 2.964.435 3.104.239.092.665.022.947-.154.465-.29.486-.27.225.218-.281.526-1.073 1.084-1.539 1.084-.128 0-.465-.17-.75-.378zm3.852-.12c-.704-.57-.846-2.103-.26-2.809.195-.235 1.117-.792 2.05-1.237 1.254-.598 1.695-.948 1.695-1.345 0-.96-.506-1.567-1.308-1.567-.866 0-1.264.38-1.395 1.332-.117.842-.861.876-.98.044-.175-1.239 1.444-2.15 3.154-1.774 1.413.31 1.594.711 1.598 3.546.004 2.794.197 3.418.968 3.147.323-.113.23.061-.269.506-.847.756-1.237.741-1.64-.062-.272-.538-.279-.538-1.191.088-1.109.759-1.612.786-2.422.13zm2.894-.982c.488-.342.591-.668.591-1.864 0-.797-.064-1.449-.143-1.449-.08 0-.615.24-1.19.533-1.534.783-2.021 1.932-1.177 2.776.53.53 1.165.532 1.919.004zM97.83 12.25c-2.986-1.3-2.699-6.433.412-7.364 1.39-.417 2.74.053 3.674 1.279 1.422 1.864.635 5.239-1.423 6.099-1.086.453-1.596.45-2.663-.014zm2.828-.682c.812-.812.766-4.1-.075-5.353-.676-1.006-1.84-1.315-2.669-.71-1.327.971-.936 5.443.55 6.31.736.428 1.617.329 2.194-.247zm29.954.823c-2.148-.938-2.82-4.821-1.143-6.607.704-.749 2.169-1.24 3.044-1.02.964.241 1.96 1.419 1.96 2.316v.76h-2.548c-2.832 0-2.713-.118-1.934 1.917.583 1.523 2.708 2.053 3.866.965.863-.811.771-.134-.116.85-.784.87-2.178 1.234-3.129.82zm2.383-5.683c-.59-1.933-2.626-2.061-3.273-.205l-.28.805h1.868c1.813 0 1.862-.018 1.685-.6zm4.792 5.512c-1.139-.562-1.787-1.791-1.811-3.43-.025-1.696.684-3.026 1.967-3.692 1.591-.825 3.851-.046 3.664 1.263-.114.798-.766.669-1.274-.252-.55-.996-1.79-1.218-2.49-.445-.576.636-.83 2.102-.59 3.39.458 2.438 3.242 3.107 4.368 1.05.173-.317.294-.384.299-.165.016.726-1.087 2.12-1.903 2.404-1.064.371-1.248.36-2.23-.123zm6.921.035c-.452-.33-.528-.777-.606-3.594-.085-3.094-.11-3.217-.665-3.219-.551 0-.545-.027.136-.599.393-.328.962-1.017 1.264-1.53l.55-.931.003 1.264c0 1.228.024 1.265.8 1.265.439 0 .798.12.798.266 0 .147-.36.267-.799.267h-.798V8.38c0 2.471.069 2.964.434 3.104.24.092.666.022.948-.154.465-.29.486-.27.225.218-.282.526-1.073 1.084-1.54 1.084-.127 0-.465-.17-.749-.378zm9.835-.005c-2.985-1.299-2.698-6.432.412-7.364 1.39-.417 2.74.053 3.675 1.28 1.422 1.863.634 5.238-1.424 6.098-1.086.454-1.595.451-2.663-.014zm2.828-.682c.812-.812.766-4.1-.075-5.353-.676-1.006-1.84-1.315-2.669-.71-1.326.972-.936 5.443.55 6.31.737.428 1.618.33 2.194-.247zm-137.523.612c1.077-.252 1.198-.784 1.198-5.272 0-4.487-.12-5.02-1.198-5.272-.293-.068.546-.124 1.864-.124s2.156.059 1.863.13c-1.154.284-1.198.476-1.198 5.266s.044 4.982 1.198 5.266c.293.072-.545.13-1.863.13s-2.157-.055-1.864-.124zm70.958-.157c.646-.327.668-.43.74-3.458l.076-3.121h-.674c-.371 0-.674-.12-.674-.266 0-.147.3-.267.665-.267.535 0 .666-.132.666-.674 0-1.688 1.486-3.32 3.023-3.32 1.097 0 2.268 1.006 1.888 1.622-.263.425-.804.262-1.4-.423-.626-.72-1.425-.865-1.845-.333-.145.183-.344.962-.442 1.73l-.177 1.398h1.074c.59 0 1.074.12 1.074.267 0 .146-.48.266-1.065.266H92.67l.032 2.463c.044 3.469.196 4.018 1.168 4.226.485.104-.09.181-1.466.198-1.987.024-2.182-.013-1.598-.308zm13.247.07c.571-.23.599-.379.599-3.26 0-1.797-.116-3.132-.287-3.303-.204-.204-.04-.372.573-.586 1.108-.386 1.045-.411 1.045.417v.716l.523-.562c.742-.796 1.582-1.009 2.068-.523.595.595.172 1.027-.823.84-1.46-.273-1.804.403-1.712 3.365.073 2.353.114 2.508.743 2.826.592.299.446.334-1.332.323-1.464-.01-1.837-.077-1.397-.254zm10.05.04l.8-.171V1.854l-.8-.171c-.438-.094 1.15-.185 3.529-.203l4.327-.031-.031 1.265c-.017.695-.09 1.025-.16.732-.293-1.2-.843-1.465-3.046-1.465h-2.089v4.551l1.79-.079c1.605-.07 1.826-.147 2.127-.744.304-.603.336-.502.336 1.065s-.032 1.668-.336 1.065c-.301-.597-.521-.674-2.137-.744l-1.8-.08.076 2.343.078 2.342 1.722.08c2.326.11 2.81-.053 3.595-1.21.77-1.132.87-.836.245.725l-.428 1.07-4.298-.03c-2.364-.018-3.938-.11-3.499-.203zm10.252.04c.22-.084.487-.284.595-.445.108-.161.197-2.345.2-4.854.003-3.803-.065-4.617-.41-4.904-.362-.3-.308-.387.43-.698.464-.195.887-.355.94-.355.054 0 .13 2.423.17 5.385l.072 5.384.666.336c.596.302.471.335-1.199.32-1.025-.01-1.684-.086-1.464-.17zm23.963 0c.695-.265.79-.674.795-3.38.003-1.98-.096-2.752-.396-3.084-.363-.401-.315-.468.533-.728l.932-.286v3.421c0 3.234.033 3.444.592 3.836.56.393.501.414-1.132.394-.948-.012-1.543-.09-1.324-.173zm12.457-.084c.59-.237.605-.33.532-3.378-.067-2.795-.125-3.13-.541-3.097-.968.077-.379-.285 1.331-.818.537-.167.6-.097.6.68v.866l.732-.696c1.125-1.07 2.032-1.19 2.849-.373.641.642.679.833.679 3.472 0 2.584.044 2.824.591 3.207.559.391.488.413-1.264.384-1.021-.017-1.617-.091-1.324-.164.293-.073.62-.27.728-.435.288-.446.245-4.55-.056-5.344-.308-.81-1.268-.916-2.28-.253-.624.41-.656.558-.656 3.07 0 2.49.035 2.655.6 2.882.442.178.11.24-1.265.24-1.394 0-1.71-.06-1.256-.243zM149.184 2.07c-.46-.185-.418-.799.066-.985.534-.204 1.198.07 1.198.496 0 .268-.663.75-.887.645a18.953 18.953 0 0 0-.377-.156z" id="path5163" fill="#4f4f4f"/></svg>