<svg xmlns="http://www.w3.org/2000/svg" preserveAspectRatio="xMinYMin meet" id="Layer_1" data-name="Layer 1" viewBox="0 0 2954 597.99999" ><defs id="defs4"><style id="style2">.cls-1,.cls-4{fill:#ffda29}.cls-1,.cls-2{fill-rule:evenodd}.cls-2,.cls-3{fill:#4f4f4f}</style></defs><title id="title6">www.wionews.com</title><path class="cls-1" d="M929.08 23.45a198.63 198.63 0 0 1 18.79 6.75 292.5 292.5 0 0 1 177.34 213.33 270.76 270.76 0 0 1 4.31 28.81q.85 9.14 1.25 18.3.35 7.86.19 15.7-.26 14.17-1.85 28.27a292.5 292.5 0 0 1-195.82 243.62 8.5 8.5 0 0 1-2.33.68 7.68 7.68 0 0 0-2.51-.76c-32.17-8-63.62-18.14-93.88-31.82a339.11 339.11 0 0 1-56.6-31.88c-12.76-9.06-24.76-19.07-35.17-30.92-4.69-5.34-8.82-11-11.59-17.65-4.73-11.35-7.1-23-6-35.39a70.07 70.07 0 0 1 6.33-23.49c1.58-3.39 3.17-6.85 5.77-9.58 8.67-9.11 17.09-18.47 26.18-27.18 11.89-11.39 23.11-23.44 34.29-35.53a30.88 30.88 0 0 0 4-5.14 50.27 50.27 0 0 0 7.56-26.31 55.78 55.78 0 0 0-5.46-23.23c-5.55-12-13.79-22.09-23.3-31.19-5.22-5-11.12-9.17-16.49-14-9-8.05-17.53-16.51-24.73-26.23-5.41-7.31-10-15-11.87-24.12-1.87-9.12-2.86-18.53-1.66-27.93a74.4 74.4 0 0 1 12.85-32.92c7.52-11 17.07-19.87 27.91-27.47 5.19-3.64 10.81-6.54 16.3-9.66a763 763 0 0 1 73-36.77 560 560 0 0 1 68.94-25 18.29 18.29 0 0 0 4.25-1.29zm75.8 278.08v-40.39c0-4.69.08-9.38 0-14.07a16.67 16.67 0 0 0-33.32.67v107.7a17.91 17.91 0 0 0 .29 3 16.56 16.56 0 0 0 23.74 12.09 16.08 16.08 0 0 0 9.27-15.15c.07-17.91.02-35.85.02-53.85z" id="path8" fill="#ffda29" fill-rule="evenodd"/><path class="cls-2" d="M929.08 23.45a18.29 18.29 0 0 1-4.24 1.35 560 560 0 0 0-68.94 25 763 763 0 0 0-73 36.77c-5.5 3.12-11.12 6-16.3 9.66-10.84 7.6-20.39 16.5-27.91 27.47a74.4 74.4 0 0 0-12.85 32.92c-1.21 9.4-.26 18.67 1.66 27.93 1.92 9.26 6.46 16.81 11.87 24.12 7.2 9.72 15.75 18.18 24.73 26.23 5.37 4.81 11.27 9 16.49 14 9.51 9.1 17.74 19.14 23.3 31.19a55.78 55.78 0 0 1 5.46 23.23 50.27 50.27 0 0 1-7.56 26.31 30.88 30.88 0 0 1-4 5.14c-11.17 12.09-22.4 24.13-34.29 35.53-9.09 8.72-17.51 18.07-26.18 27.18-2.6 2.73-4.19 6.19-5.77 9.58a70.07 70.07 0 0 0-6.34 23.47c-1.12 12.35 1.26 24 6 35.39 2.76 6.63 6.9 12.31 11.59 17.65 10.41 11.81 22.41 21.82 35.17 30.89a339.11 339.11 0 0 0 56.6 31.88c30.25 13.68 61.71 23.8 93.88 31.82a7.68 7.68 0 0 1 2.51.76c-4.24 1.68-8.63 2.87-13 4.11a288.29 288.29 0 0 1-40.89 8.5 269.8 269.8 0 0 1-27 2.28c-3.26.11-6.52.22-9.79.24a292.52 292.52 0 0 1-270.65-177.34 288.57 288.57 0 0 1-18.42-60.3 292.51 292.51 0 0 1-4.9-67.79 292.4 292.4 0 0 1 69.68-177A292.29 292.29 0 0 1 816.06 9.83a300.15 300.15 0 0 1 35.48-.56 286.13 286.13 0 0 1 60.18 9c5.2 1.35 10.35 2.85 15.47 4.46.64.2 1.26.48 1.89.72zm-200.54 278.2a71.56 71.56 0 1 0-72.33 71.54 71.47 71.47 0 0 0 72.33-71.54z" id="path10" fill="#4f4f4f" fill-rule="evenodd"/><path class="cls-2" d="M1004.88 301.53v53.85a16.08 16.08 0 0 1-9.29 15.15 16.56 16.56 0 0 1-23.77-12 17.91 17.91 0 0 1-.29-3v-107.7a16.67 16.67 0 0 1 33.32-.67c.1 4.69 0 9.38 0 14.07q.04 20.15.03 40.3z" id="path12" fill="#4f4f4f" fill-rule="evenodd"/><path class="cls-1" d="M728.54 301.65a71.56 71.56 0 1 1-71-71.6 71.57 71.57 0 0 1 71 71.6z" id="path14" fill="#ffda29" fill-rule="evenodd"/><path class="cls-3" d="M2142.76 468.79V134.38s224.74 219.8 230.82 227.43V134.38h46.63v334.68s-226.51-221.53-231-227.86l-.1 227.58h-46.31z" id="path16" fill="#4f4f4f"/><path d="M2018.66 300.87a96.68 96.68 0 0 1-96.68 96.68 96.68 96.68 0 0 1-96.68-96.68 96.68 96.68 0 0 1 96.68-96.68 96.68 96.68 0 0 1 96.68 96.68z" id="circle18" fill="#ffda29"/><path class="cls-3" d="M2097.21 301.53a161 161 0 0 1-50.58 118.17 177.09 177.09 0 0 1-56.33 36.34 174.69 174.69 0 0 1-65.83 12.62 177 177 0 0 1-66.6-12.73 171.8 171.8 0 0 1-56-36.23 165.25 165.25 0 0 1-37.55-182.59 163.81 163.81 0 0 1 37.55-54.19 171.58 171.58 0 0 1 56.11-36.13 183.51 183.51 0 0 1 132.65 0 171.94 171.94 0 0 1 56 36.13 167.38 167.38 0 0 1 37.58 54.5 162 162 0 0 1 13 64.11zm-54.78 0a119.15 119.15 0 0 0-34.68-84.65 114 114 0 0 0-37.88-25.79 116.26 116.26 0 0 0-45.4-9 117.44 117.44 0 0 0-45.39 8.92 119.53 119.53 0 0 0-64 64.42 121.47 121.47 0 0 0-8.87 46.1 119.27 119.27 0 0 0 8.84 45.7 118 118 0 0 0 25.63 38.52 117.95 117.95 0 0 0 128.67 25.9 119.08 119.08 0 0 0 73.05-110.12z" id="path20" fill="#4f4f4f"/><path class="cls-3" d="M1651.05 468.65V134.38h50.19v334.27z" id="path22" fill="#4f4f4f"/><path class="cls-3" d="M1182.03 134.38h49.83s78.05 210.75 80 217.53c4.95-16.39 79.3-218 79.3-218s79.87 210.07 82.27 218.4c1.41-6.36 77.17-218 77.17-218h50.25l-124 334.37s-84.11-214-86.09-220.53c-2.41 8.34-84.18 220.53-84.18 220.53z" id="path24" fill="#4f4f4f"/></svg>